<svg xmlns="http://www.w3.org/2000/svg" viewBox="0 0 800 600" width="100%" height="100%">
  <defs>
    <filter id="glow" x="-20%" y="-20%" width="140%" height="140%">
      <feGaussianBlur stdDeviation="8" result="blur" />
      <feMerge>
        <feMergeNode in="blur" />
        <feMergeNode in="SourceGraphic" />
      </feMerge>
    </filter>
    <filter id="soft-glow" x="-20%" y="-20%" width="140%" height="140%">
      <feGaussianBlur stdDeviation="4" result="blur" />
      <feMerge>
        <feMergeNode in="blur" />
        <feMergeNode in="SourceGraphic" />
      </feMerge>
    </filter>
    <style>
      .light-variant { display: block; }
      .dark-variant { display: none; }
      @media (prefers-color-scheme: dark) {
        .light-variant { display: none; }
        .dark-variant { display: block; }
      }
    </style>
  </defs>
  <g class="light-variant">
  <defs>
    <filter id="glow" x="-20%" y="-20%" width="140%" height="140%">
      <feGaussianBlur stdDeviation="8" result="blur" />
      <feMerge>
        <feMergeNode in="blur" />
        <feMergeNode in="SourceGraphic" />
      </feMerge>
    </filter>
    <filter id="soft-glow" x="-20%" y="-20%" width="140%" height="140%">
      <feGaussianBlur stdDeviation="4" result="blur" />
      <feMerge>
        <feMergeNode in="blur" />
        <feMergeNode in="SourceGraphic" />
      </feMerge>
    </filter>
  </defs>
  
    <rect x="0" y="0" width="800" height="600" fill="#ffffff"/>
    <!-- Cycle outline -->
    <circle cx="400" cy="300" r="170" fill="none" stroke="#000000" stroke-width="1" stroke-dasharray="8 4" opacity="0.2"/>
    <!-- Arrows -->
    <line x1="433" y1="159" x2="506" y2="201" stroke="#000000" stroke-width="2" opacity="0.5"/><polygon points="503,205 514,206 508,197" fill="#000000" opacity="0.5"/><line x1="539" y1="258" x2="539" y2="342" stroke="#000000" stroke-width="2" opacity="0.5"/><polygon points="534,342 539,352 544,342" fill="#000000" opacity="0.5"/><line x1="506" y1="399" x2="433" y2="441" stroke="#000000" stroke-width="2" opacity="0.5"/><polygon points="430,437 424,446 435,445" fill="#000000" opacity="0.5"/><line x1="367" y1="441" x2="294" y2="399" stroke="#000000" stroke-width="2" opacity="0.5"/><polygon points="297,395 286,394 292,403" fill="#000000" opacity="0.5"/><line x1="261" y1="342" x2="261" y2="258" stroke="#000000" stroke-width="2" opacity="0.5"/><polygon points="266,258 261,248 256,258" fill="#000000" opacity="0.5"/><line x1="294" y1="201" x2="367" y2="159" stroke="#000000" stroke-width="2" opacity="0.5"/><polygon points="370,163 376,154 365,155" fill="#000000" opacity="0.5"/>
    <!-- Nodes -->
    <rect x="365" y="122" width="70" height="36" rx="8" fill="#f5f5f5" stroke="#000000" stroke-width="2.5"/><polygon points="539,192 567,220 539,248 511,220" fill="#f5f5f5" stroke="#000000" stroke-width="2.5"/><rect x="504" y="362" width="70" height="36" rx="8" fill="#f5f5f5" stroke="#000000" stroke-width="2.5"/><rect x="365" y="442" width="70" height="36" rx="8" fill="#f5f5f5" stroke="#000000" stroke-width="2.5"/><rect x="226" y="362" width="70" height="36" rx="8" fill="#f5f5f5" stroke="#000000" stroke-width="2.5"/><rect x="226" y="202" width="70" height="36" rx="8" fill="#f5f5f5" stroke="#000000" stroke-width="2.5"/>
    <!-- Center label -->
    <circle cx="400" cy="300" r="30" fill="#f5f5f5" stroke="#000000" stroke-width="2" filter="url(#soft-glow)"/>
    <circle cx="400" cy="300" r="10" fill="#000000"/>
  
</g>
  <g class="dark-variant">
  <defs>
    <filter id="glow" x="-20%" y="-20%" width="140%" height="140%">
      <feGaussianBlur stdDeviation="8" result="blur" />
      <feMerge>
        <feMergeNode in="blur" />
        <feMergeNode in="SourceGraphic" />
      </feMerge>
    </filter>
    <filter id="soft-glow" x="-20%" y="-20%" width="140%" height="140%">
      <feGaussianBlur stdDeviation="4" result="blur" />
      <feMerge>
        <feMergeNode in="blur" />
        <feMergeNode in="SourceGraphic" />
      </feMerge>
    </filter>
  </defs>
  
    <rect x="0" y="0" width="800" height="600" fill="#111117"/>
    <!-- Cycle outline -->
    <circle cx="400" cy="300" r="170" fill="none" stroke="#ffffff" stroke-width="1" stroke-dasharray="8 4" opacity="0.2"/>
    <!-- Arrows -->
    <line x1="433" y1="159" x2="506" y2="201" stroke="#f5f5f5" stroke-width="2" opacity="0.5"/><polygon points="503,205 514,206 508,197" fill="#f5f5f5" opacity="0.5"/><line x1="539" y1="258" x2="539" y2="342" stroke="#f5f5f5" stroke-width="2" opacity="0.5"/><polygon points="534,342 539,352 544,342" fill="#f5f5f5" opacity="0.5"/><line x1="506" y1="399" x2="433" y2="441" stroke="#f5f5f5" stroke-width="2" opacity="0.5"/><polygon points="430,437 424,446 435,445" fill="#f5f5f5" opacity="0.5"/><line x1="367" y1="441" x2="294" y2="399" stroke="#f5f5f5" stroke-width="2" opacity="0.5"/><polygon points="297,395 286,394 292,403" fill="#f5f5f5" opacity="0.5"/><line x1="261" y1="342" x2="261" y2="258" stroke="#f5f5f5" stroke-width="2" opacity="0.5"/><polygon points="266,258 261,248 256,258" fill="#f5f5f5" opacity="0.5"/><line x1="294" y1="201" x2="367" y2="159" stroke="#f5f5f5" stroke-width="2" opacity="0.5"/><polygon points="370,163 376,154 365,155" fill="#f5f5f5" opacity="0.5"/>
    <!-- Nodes -->
    <rect x="365" y="122" width="70" height="36" rx="8" fill="#28282e" stroke="#ffffff" stroke-width="2.5"/><polygon points="539,192 567,220 539,248 511,220" fill="#28282e" stroke="#ffffff" stroke-width="2.5"/><rect x="504" y="362" width="70" height="36" rx="8" fill="#28282e" stroke="#ffffff" stroke-width="2.5"/><rect x="365" y="442" width="70" height="36" rx="8" fill="#28282e" stroke="#ffffff" stroke-width="2.5"/><rect x="226" y="362" width="70" height="36" rx="8" fill="#28282e" stroke="#ffffff" stroke-width="2.5"/><rect x="226" y="202" width="70" height="36" rx="8" fill="#28282e" stroke="#ffffff" stroke-width="2.5"/>
    <!-- Center label -->
    <circle cx="400" cy="300" r="30" fill="#28282e" stroke="#ffffff" stroke-width="2" filter="url(#soft-glow)"/>
    <circle cx="400" cy="300" r="10" fill="#ffffff"/>
  
</g>
</svg>