<svg xmlns="http://www.w3.org/2000/svg" viewBox="0 0 800 600" width="100%" height="100%">
  <defs>
    <filter id="glow" x="-20%" y="-20%" width="140%" height="140%">
      <feGaussianBlur stdDeviation="8" result="blur" />
      <feMerge>
        <feMergeNode in="blur" />
        <feMergeNode in="SourceGraphic" />
      </feMerge>
    </filter>
    <filter id="soft-glow" x="-20%" y="-20%" width="140%" height="140%">
      <feGaussianBlur stdDeviation="4" result="blur" />
      <feMerge>
        <feMergeNode in="blur" />
        <feMergeNode in="SourceGraphic" />
      </feMerge>
    </filter>
    <style>
      .light-variant { display: block; }
      .dark-variant { display: none; }
      @media (prefers-color-scheme: dark) {
        .light-variant { display: none; }
        .dark-variant { display: block; }
      }
    </style>
  </defs>
  <g class="light-variant">
  <defs>
    <filter id="glow" x="-20%" y="-20%" width="140%" height="140%">
      <feGaussianBlur stdDeviation="8" result="blur" />
      <feMerge>
        <feMergeNode in="blur" />
        <feMergeNode in="SourceGraphic" />
      </feMerge>
    </filter>
    <filter id="soft-glow" x="-20%" y="-20%" width="140%" height="140%">
      <feGaussianBlur stdDeviation="4" result="blur" />
      <feMerge>
        <feMergeNode in="blur" />
        <feMergeNode in="SourceGraphic" />
      </feMerge>
    </filter>
  </defs>
  
    <rect x="0" y="0" width="800" height="600" fill="#ffffff"/>
    <!-- Left brace -->
    <path d="M260 120 C 230 120, 220 140, 220 170 L220 260 C 220 280, 200 300, 200 300 C 200 300, 220 320, 220 340 L220 430 C 220 460, 230 480, 260 480" fill="none" stroke="#000000" stroke-width="5"/>
    <!-- Right brace -->
    <path d="M540 120 C 570 120, 580 140, 580 170 L580 260 C 580 280, 600 300, 600 300 C 600 300, 580 320, 580 340 L580 430 C 580 460, 570 480, 540 480" fill="none" stroke="#000000" stroke-width="5"/>
    <!-- Gear/cog icon inside braces (center) -->
    <circle cx="400" cy="300" r="50" fill="#f5f5f5" stroke="#000000" stroke-width="3" filter="url(#glow)"/>
    <circle cx="400" cy="300" r="30" fill="#f5f5f5" stroke="#000000" stroke-width="2"/>
    <circle cx="400" cy="300" r="12" fill="#000000"/>
    <!-- Gear teeth -->
    <rect x="392" y="242" width="16" height="14" rx="3" fill="#f5f5f5" stroke="#000000" stroke-width="2"/>
    <rect x="392" y="344" width="16" height="14" rx="3" fill="#f5f5f5" stroke="#000000" stroke-width="2"/>
    <rect x="342" y="292" width="14" height="16" rx="3" fill="#f5f5f5" stroke="#000000" stroke-width="2"/>
    <rect x="444" y="292" width="14" height="16" rx="3" fill="#f5f5f5" stroke="#000000" stroke-width="2"/>
    <rect x="358" y="256" width="14" height="14" rx="3" fill="#f5f5f5" stroke="#000000" stroke-width="1.5" transform="rotate(-45 365 263)"/>
    <rect x="428" y="256" width="14" height="14" rx="3" fill="#f5f5f5" stroke="#000000" stroke-width="1.5" transform="rotate(45 435 263)"/>
    <rect x="358" y="330" width="14" height="14" rx="3" fill="#f5f5f5" stroke="#000000" stroke-width="1.5" transform="rotate(45 365 337)"/>
    <rect x="428" y="330" width="14" height="14" rx="3" fill="#f5f5f5" stroke="#000000" stroke-width="1.5" transform="rotate(-45 435 337)"/>
    <!-- JSON key-value hints -->
    <rect x="280" y="170" width="40" height="6" rx="2" fill="#000000" opacity="0.4"/>
    <rect x="330" y="170" width="60" height="6" rx="2" fill="#000000" opacity="0.3"/>
    <rect x="280" y="190" width="50" height="6" rx="2" fill="#000000" opacity="0.4"/>
    <rect x="340" y="190" width="80" height="6" rx="2" fill="#000000" opacity="0.3"/>
    <rect x="280" y="400" width="45" height="6" rx="2" fill="#000000" opacity="0.4"/>
    <rect x="335" y="400" width="70" height="6" rx="2" fill="#000000" opacity="0.3"/>
    <rect x="280" y="420" width="55" height="6" rx="2" fill="#000000" opacity="0.4"/>
    <rect x="345" y="420" width="50" height="6" rx="2" fill="#000000" opacity="0.3"/>
  
</g>
  <g class="dark-variant">
  <defs>
    <filter id="glow" x="-20%" y="-20%" width="140%" height="140%">
      <feGaussianBlur stdDeviation="8" result="blur" />
      <feMerge>
        <feMergeNode in="blur" />
        <feMergeNode in="SourceGraphic" />
      </feMerge>
    </filter>
    <filter id="soft-glow" x="-20%" y="-20%" width="140%" height="140%">
      <feGaussianBlur stdDeviation="4" result="blur" />
      <feMerge>
        <feMergeNode in="blur" />
        <feMergeNode in="SourceGraphic" />
      </feMerge>
    </filter>
  </defs>
  
    <rect x="0" y="0" width="800" height="600" fill="#111117"/>
    <!-- Left brace -->
    <path d="M260 120 C 230 120, 220 140, 220 170 L220 260 C 220 280, 200 300, 200 300 C 200 300, 220 320, 220 340 L220 430 C 220 460, 230 480, 260 480" fill="none" stroke="#ffffff" stroke-width="5"/>
    <!-- Right brace -->
    <path d="M540 120 C 570 120, 580 140, 580 170 L580 260 C 580 280, 600 300, 600 300 C 600 300, 580 320, 580 340 L580 430 C 580 460, 570 480, 540 480" fill="none" stroke="#ffffff" stroke-width="5"/>
    <!-- Gear/cog icon inside braces (center) -->
    <circle cx="400" cy="300" r="50" fill="#28282e" stroke="#ffffff" stroke-width="3" filter="url(#glow)"/>
    <circle cx="400" cy="300" r="30" fill="#28282e" stroke="#ffffff" stroke-width="2"/>
    <circle cx="400" cy="300" r="12" fill="#ffffff"/>
    <!-- Gear teeth -->
    <rect x="392" y="242" width="16" height="14" rx="3" fill="#28282e" stroke="#ffffff" stroke-width="2"/>
    <rect x="392" y="344" width="16" height="14" rx="3" fill="#28282e" stroke="#ffffff" stroke-width="2"/>
    <rect x="342" y="292" width="14" height="16" rx="3" fill="#28282e" stroke="#ffffff" stroke-width="2"/>
    <rect x="444" y="292" width="14" height="16" rx="3" fill="#28282e" stroke="#ffffff" stroke-width="2"/>
    <rect x="358" y="256" width="14" height="14" rx="3" fill="#28282e" stroke="#ffffff" stroke-width="1.5" transform="rotate(-45 365 263)"/>
    <rect x="428" y="256" width="14" height="14" rx="3" fill="#28282e" stroke="#ffffff" stroke-width="1.5" transform="rotate(45 435 263)"/>
    <rect x="358" y="330" width="14" height="14" rx="3" fill="#28282e" stroke="#ffffff" stroke-width="1.5" transform="rotate(45 365 337)"/>
    <rect x="428" y="330" width="14" height="14" rx="3" fill="#28282e" stroke="#ffffff" stroke-width="1.5" transform="rotate(-45 435 337)"/>
    <!-- JSON key-value hints -->
    <rect x="280" y="170" width="40" height="6" rx="2" fill="#ffffff" opacity="0.4"/>
    <rect x="330" y="170" width="60" height="6" rx="2" fill="#ffffff" opacity="0.3"/>
    <rect x="280" y="190" width="50" height="6" rx="2" fill="#ffffff" opacity="0.4"/>
    <rect x="340" y="190" width="80" height="6" rx="2" fill="#ffffff" opacity="0.3"/>
    <rect x="280" y="400" width="45" height="6" rx="2" fill="#ffffff" opacity="0.4"/>
    <rect x="335" y="400" width="70" height="6" rx="2" fill="#ffffff" opacity="0.3"/>
    <rect x="280" y="420" width="55" height="6" rx="2" fill="#ffffff" opacity="0.4"/>
    <rect x="345" y="420" width="50" height="6" rx="2" fill="#ffffff" opacity="0.3"/>
  
</g>
</svg>