<svg xmlns="http://www.w3.org/2000/svg" viewBox="0 0 800 600" width="100%" height="100%">
  <defs>
    <filter id="glow" x="-20%" y="-20%" width="140%" height="140%">
      <feGaussianBlur stdDeviation="8" result="blur" />
      <feMerge>
        <feMergeNode in="blur" />
        <feMergeNode in="SourceGraphic" />
      </feMerge>
    </filter>
    <filter id="soft-glow" x="-20%" y="-20%" width="140%" height="140%">
      <feGaussianBlur stdDeviation="4" result="blur" />
      <feMerge>
        <feMergeNode in="blur" />
        <feMergeNode in="SourceGraphic" />
      </feMerge>
    </filter>
    <style>
      .light-variant { display: block; }
      .dark-variant { display: none; }
      @media (prefers-color-scheme: dark) {
        .light-variant { display: none; }
        .dark-variant { display: block; }
      }
    </style>
  </defs>
  <g class="light-variant">
  <defs>
    <filter id="glow" x="-20%" y="-20%" width="140%" height="140%">
      <feGaussianBlur stdDeviation="8" result="blur" />
      <feMerge>
        <feMergeNode in="blur" />
        <feMergeNode in="SourceGraphic" />
      </feMerge>
    </filter>
    <filter id="soft-glow" x="-20%" y="-20%" width="140%" height="140%">
      <feGaussianBlur stdDeviation="4" result="blur" />
      <feMerge>
        <feMergeNode in="blur" />
        <feMergeNode in="SourceGraphic" />
      </feMerge>
    </filter>
  </defs>
  
    <rect x="0" y="0" width="800" height="600" fill="#ffffff"/>
    <!-- LEFT: Boilerplate stack -->
    <rect x="80" y="130" width="240" height="40" rx="6" fill="#f5f5f5" stroke="#000000" stroke-width="1.5" opacity="0.4"/>
    <rect x="95" y="142" width="60" height="5" rx="2" fill="#000000" opacity="0.3"/>
    <rect x="80" y="180" width="240" height="40" rx="6" fill="#f5f5f5" stroke="#000000" stroke-width="1.5" opacity="0.45"/>
    <rect x="95" y="192" width="60" height="5" rx="2" fill="#000000" opacity="0.3"/>
    <rect x="80" y="230" width="240" height="40" rx="6" fill="#f5f5f5" stroke="#000000" stroke-width="1.5" opacity="0.5"/>
    <rect x="95" y="242" width="60" height="5" rx="2" fill="#000000" opacity="0.3"/>
    <rect x="80" y="280" width="240" height="40" rx="6" fill="#f5f5f5" stroke="#000000" stroke-width="1.5" opacity="0.55"/>
    <rect x="95" y="292" width="60" height="5" rx="2" fill="#000000" opacity="0.3"/>
    <rect x="80" y="330" width="240" height="40" rx="6" fill="#f5f5f5" stroke="#000000" stroke-width="1.5" opacity="0.6"/>
    <rect x="95" y="342" width="60" height="5" rx="2" fill="#000000" opacity="0.3"/>
    <rect x="80" y="380" width="240" height="40" rx="6" fill="#f5f5f5" stroke="#000000" stroke-width="1.5" opacity="0.65"/>
    <rect x="95" y="392" width="60" height="5" rx="2" fill="#000000" opacity="0.3"/>
    <rect x="80" y="430" width="240" height="40" rx="6" fill="#f5f5f5" stroke="#000000" stroke-width="1.5" opacity="0.7"/>
    <rect x="95" y="442" width="60" height="5" rx="2" fill="#000000" opacity="0.3"/>
    <!-- VS divider -->
    <line x1="400" y1="140" x2="400" y2="460" stroke="#000000" stroke-width="1" stroke-dasharray="8 6" opacity="0.3"/>
    <!-- RIGHT: Single clean schema -->
    <rect x="480" y="220" width="240" height="160" rx="10" fill="#f5f5f5" stroke="#000000" stroke-width="3" filter="url(#glow)"/>
    <rect x="500" y="245" width="60" height="7" rx="3" fill="#000000" opacity="0.8"/>
    <rect x="510" y="262" width="140" height="5" rx="2" fill="#000000" opacity="0.5"/>
    <rect x="510" y="275" width="100" height="5" rx="2" fill="#000000" opacity="0.4"/>
    <rect x="500" y="295" width="50" height="7" rx="3" fill="#000000" opacity="0.8"/>
    <rect x="510" y="312" width="120" height="5" rx="2" fill="#000000" opacity="0.5"/>
    <rect x="510" y="325" width="80" height="5" rx="2" fill="#000000" opacity="0.4"/>
    <rect x="510" y="338" width="130" height="5" rx="2" fill="#000000" opacity="0.3"/>
    <!-- Accent marker -->
    <circle cx="600" cy="420" r="10" fill="#000000" filter="url(#soft-glow)"/>
  
</g>
  <g class="dark-variant">
  <defs>
    <filter id="glow" x="-20%" y="-20%" width="140%" height="140%">
      <feGaussianBlur stdDeviation="8" result="blur" />
      <feMerge>
        <feMergeNode in="blur" />
        <feMergeNode in="SourceGraphic" />
      </feMerge>
    </filter>
    <filter id="soft-glow" x="-20%" y="-20%" width="140%" height="140%">
      <feGaussianBlur stdDeviation="4" result="blur" />
      <feMerge>
        <feMergeNode in="blur" />
        <feMergeNode in="SourceGraphic" />
      </feMerge>
    </filter>
  </defs>
  
    <rect x="0" y="0" width="800" height="600" fill="#111117"/>
    <!-- LEFT: Boilerplate stack -->
    <rect x="80" y="130" width="240" height="40" rx="6" fill="#28282e" stroke="#f5f5f5" stroke-width="1.5" opacity="0.4"/>
    <rect x="95" y="142" width="60" height="5" rx="2" fill="#f5f5f5" opacity="0.3"/>
    <rect x="80" y="180" width="240" height="40" rx="6" fill="#28282e" stroke="#f5f5f5" stroke-width="1.5" opacity="0.45"/>
    <rect x="95" y="192" width="60" height="5" rx="2" fill="#f5f5f5" opacity="0.3"/>
    <rect x="80" y="230" width="240" height="40" rx="6" fill="#28282e" stroke="#f5f5f5" stroke-width="1.5" opacity="0.5"/>
    <rect x="95" y="242" width="60" height="5" rx="2" fill="#f5f5f5" opacity="0.3"/>
    <rect x="80" y="280" width="240" height="40" rx="6" fill="#28282e" stroke="#f5f5f5" stroke-width="1.5" opacity="0.55"/>
    <rect x="95" y="292" width="60" height="5" rx="2" fill="#f5f5f5" opacity="0.3"/>
    <rect x="80" y="330" width="240" height="40" rx="6" fill="#28282e" stroke="#f5f5f5" stroke-width="1.5" opacity="0.6"/>
    <rect x="95" y="342" width="60" height="5" rx="2" fill="#f5f5f5" opacity="0.3"/>
    <rect x="80" y="380" width="240" height="40" rx="6" fill="#28282e" stroke="#f5f5f5" stroke-width="1.5" opacity="0.65"/>
    <rect x="95" y="392" width="60" height="5" rx="2" fill="#f5f5f5" opacity="0.3"/>
    <rect x="80" y="430" width="240" height="40" rx="6" fill="#28282e" stroke="#f5f5f5" stroke-width="1.5" opacity="0.7"/>
    <rect x="95" y="442" width="60" height="5" rx="2" fill="#f5f5f5" opacity="0.3"/>
    <!-- VS divider -->
    <line x1="400" y1="140" x2="400" y2="460" stroke="#f5f5f5" stroke-width="1" stroke-dasharray="8 6" opacity="0.3"/>
    <!-- RIGHT: Single clean schema -->
    <rect x="480" y="220" width="240" height="160" rx="10" fill="#28282e" stroke="#ffffff" stroke-width="3" filter="url(#glow)"/>
    <rect x="500" y="245" width="60" height="7" rx="3" fill="#ffffff" opacity="0.8"/>
    <rect x="510" y="262" width="140" height="5" rx="2" fill="#ffffff" opacity="0.5"/>
    <rect x="510" y="275" width="100" height="5" rx="2" fill="#ffffff" opacity="0.4"/>
    <rect x="500" y="295" width="50" height="7" rx="3" fill="#ffffff" opacity="0.8"/>
    <rect x="510" y="312" width="120" height="5" rx="2" fill="#ffffff" opacity="0.5"/>
    <rect x="510" y="325" width="80" height="5" rx="2" fill="#ffffff" opacity="0.4"/>
    <rect x="510" y="338" width="130" height="5" rx="2" fill="#ffffff" opacity="0.3"/>
    <!-- Accent marker -->
    <circle cx="600" cy="420" r="10" fill="#ffffff" filter="url(#soft-glow)"/>
  
</g>
</svg>