<svg xmlns="http://www.w3.org/2000/svg" viewBox="0 0 800 600" width="100%" height="100%">
  <defs>
    <filter id="glow" x="-20%" y="-20%" width="140%" height="140%">
      <feGaussianBlur stdDeviation="8" result="blur" />
      <feMerge>
        <feMergeNode in="blur" />
        <feMergeNode in="SourceGraphic" />
      </feMerge>
    </filter>
    <filter id="soft-glow" x="-20%" y="-20%" width="140%" height="140%">
      <feGaussianBlur stdDeviation="4" result="blur" />
      <feMerge>
        <feMergeNode in="blur" />
        <feMergeNode in="SourceGraphic" />
      </feMerge>
    </filter>
  </defs>
  
    <rect x="0" y="0" width="800" height="600" fill="#ffffff"/>
    <!-- Schema document (left) -->
    <rect x="80" y="120" width="240" height="360" rx="10" fill="#f5f5f5" stroke="#000000" stroke-width="3"/>
    <!-- Schema content lines -->
    <rect x="100" y="150" width="80" height="8" rx="3" fill="#000000" opacity="0.8"/>
    <rect x="110" y="170" width="140" height="7" rx="3" fill="#000000" opacity="0.4"/>
    <rect x="110" y="185" width="100" height="7" rx="3" fill="#000000" opacity="0.5"/>
    <rect x="110" y="200" width="160" height="7" rx="3" fill="#000000" opacity="0.4"/>
    <rect x="100" y="225" width="70" height="8" rx="3" fill="#000000" opacity="0.8"/>
    <rect x="110" y="245" width="120" height="7" rx="3" fill="#000000" opacity="0.4"/>
    <rect x="110" y="260" width="80" height="7" rx="3" fill="#000000" opacity="0.5"/>
    <rect x="100" y="285" width="90" height="8" rx="3" fill="#000000" opacity="0.8"/>
    <rect x="110" y="305" width="150" height="7" rx="3" fill="#000000" opacity="0.4"/>
    <rect x="110" y="320" width="110" height="7" rx="3" fill="#000000" opacity="0.4"/>
    <rect x="110" y="335" width="130" height="7" rx="3" fill="#000000" opacity="0.5"/>
    <!-- Flow arrows -->
    <path d="M320 220 C 380 220, 380 180, 440 180" fill="none" stroke="#000000" stroke-width="2.5"/>
    <polygon points="436,174 446,180 436,186" fill="#000000"/>
    <path d="M320 300 C 380 300, 380 300, 440 300" fill="none" stroke="#000000" stroke-width="2.5"/>
    <polygon points="436,294 446,300 436,306" fill="#000000"/>
    <path d="M320 380 C 380 380, 380 420, 440 420" fill="none" stroke="#000000" stroke-width="2.5"/>
    <polygon points="436,414 446,420 436,426" fill="#000000"/>
    <!-- Generated code block 1 (top right) -->
    <rect x="450" y="130" width="260" height="100" rx="8" fill="#f5f5f5" stroke="#000000" stroke-width="2"/>
    <rect x="465" y="148" width="60" height="6" rx="2" fill="#000000" opacity="0.7"/>
    <rect x="475" y="162" width="100" height="5" rx="2" fill="#000000" opacity="0.4"/>
    <rect x="475" y="175" width="80" height="5" rx="2" fill="#000000" opacity="0.4"/>
    <rect x="475" y="188" width="120" height="5" rx="2" fill="#000000" opacity="0.4"/>
    <!-- Generated code block 2 (middle right) -->
    <rect x="450" y="255" width="260" height="90" rx="8" fill="#f5f5f5" stroke="#000000" stroke-width="2"/>
    <rect x="465" y="273" width="70" height="6" rx="2" fill="#000000" opacity="0.7"/>
    <rect x="475" y="287" width="110" height="5" rx="2" fill="#000000" opacity="0.4"/>
    <rect x="475" y="300" width="90" height="5" rx="2" fill="#000000" opacity="0.4"/>
    <!-- Generated code block 3 (bottom right) -->
    <rect x="450" y="370" width="260" height="100" rx="8" fill="#f5f5f5" stroke="#000000" stroke-width="2"/>
    <rect x="465" y="388" width="55" height="6" rx="2" fill="#000000" opacity="0.7"/>
    <rect x="475" y="402" width="130" height="5" rx="2" fill="#000000" opacity="0.4"/>
    <rect x="475" y="415" width="100" height="5" rx="2" fill="#000000" opacity="0.4"/>
    <rect x="475" y="428" width="80" height="5" rx="2" fill="#000000" opacity="0.4"/>
    <!-- Glow on schema doc -->
    <rect x="80" y="120" width="240" height="360" rx="10" fill="none" stroke="#000000" stroke-width="1" filter="url(#soft-glow)" opacity="0.3"/>
  
</svg>