<svg xmlns="http://www.w3.org/2000/svg" viewBox="0 0 800 600" width="100%" height="100%">
  <defs>
    <filter id="glow" x="-20%" y="-20%" width="140%" height="140%">
      <feGaussianBlur stdDeviation="8" result="blur" />
      <feMerge>
        <feMergeNode in="blur" />
        <feMergeNode in="SourceGraphic" />
      </feMerge>
    </filter>
    <filter id="soft-glow" x="-20%" y="-20%" width="140%" height="140%">
      <feGaussianBlur stdDeviation="4" result="blur" />
      <feMerge>
        <feMergeNode in="blur" />
        <feMergeNode in="SourceGraphic" />
      </feMerge>
    </filter>
    <style>
      .light-variant { display: block; }
      .dark-variant { display: none; }
      @media (prefers-color-scheme: dark) {
        .light-variant { display: none; }
        .dark-variant { display: block; }
      }
    </style>
  </defs>
  <g class="light-variant">
  <defs>
    <filter id="glow" x="-20%" y="-20%" width="140%" height="140%">
      <feGaussianBlur stdDeviation="8" result="blur" />
      <feMerge>
        <feMergeNode in="blur" />
        <feMergeNode in="SourceGraphic" />
      </feMerge>
    </filter>
    <filter id="soft-glow" x="-20%" y="-20%" width="140%" height="140%">
      <feGaussianBlur stdDeviation="4" result="blur" />
      <feMerge>
        <feMergeNode in="blur" />
        <feMergeNode in="SourceGraphic" />
      </feMerge>
    </filter>
  </defs>
  
    <rect x="0" y="0" width="800" height="600" fill="#ffffff"/>
    <!-- Orbit ring -->
    <circle cx="400" cy="300" r="180" fill="none" stroke="#000000" stroke-width="1" stroke-dasharray="8 4" opacity="0.2"/>
    <!-- Connection lines -->
    <line x1="400" y1="300" x2="400" y2="130" stroke="#000000" stroke-width="1.5" stroke-dasharray="5 3" opacity="0.4"/><line x1="400" y1="300" x2="547" y2="215" stroke="#000000" stroke-width="1.5" stroke-dasharray="5 3" opacity="0.4"/><line x1="400" y1="300" x2="547" y2="385" stroke="#000000" stroke-width="1.5" stroke-dasharray="5 3" opacity="0.4"/><line x1="400" y1="300" x2="400" y2="470" stroke="#000000" stroke-width="1.5" stroke-dasharray="5 3" opacity="0.4"/><line x1="400" y1="300" x2="253" y2="385" stroke="#000000" stroke-width="1.5" stroke-dasharray="5 3" opacity="0.4"/><line x1="400" y1="300" x2="253" y2="215" stroke="#000000" stroke-width="1.5" stroke-dasharray="5 3" opacity="0.4"/>
    <!-- Central entity -->
    <rect x="340" y="260" width="120" height="80" rx="8" fill="#f5f5f5" stroke="#000000" stroke-width="4" filter="url(#glow)"/>
    <rect x="360" y="278" width="50" height="7" rx="3" fill="#000000" opacity="0.8"/>
    <rect x="360" y="292" width="70" height="5" rx="2" fill="#000000" opacity="0.4"/>
    <rect x="360" y="304" width="55" height="5" rx="2" fill="#000000" opacity="0.4"/>
    <rect x="360" y="316" width="65" height="5" rx="2" fill="#000000" opacity="0.4"/>
    <!-- Trait nodes -->
    <rect x="350" y="108" width="100" height="44" rx="18" fill="#f5f5f5" stroke="#000000" stroke-width="2.5"/><rect x="370" y="125" width="60" height="6" rx="3" fill="#000000" opacity="0.6"/><rect x="497" y="193" width="100" height="44" rx="18" fill="#f5f5f5" stroke="#000000" stroke-width="2.5"/><rect x="517" y="210" width="60" height="6" rx="3" fill="#000000" opacity="0.6"/><rect x="497" y="363" width="100" height="44" rx="18" fill="#f5f5f5" stroke="#000000" stroke-width="2.5"/><rect x="517" y="380" width="60" height="6" rx="3" fill="#000000" opacity="0.6"/><rect x="350" y="448" width="100" height="44" rx="18" fill="#f5f5f5" stroke="#000000" stroke-width="2.5"/><rect x="370" y="465" width="60" height="6" rx="3" fill="#000000" opacity="0.6"/><rect x="203" y="363" width="100" height="44" rx="18" fill="#f5f5f5" stroke="#000000" stroke-width="2.5"/><rect x="223" y="380" width="60" height="6" rx="3" fill="#000000" opacity="0.6"/><rect x="203" y="193" width="100" height="44" rx="18" fill="#f5f5f5" stroke="#000000" stroke-width="2.5"/><rect x="223" y="210" width="60" height="6" rx="3" fill="#000000" opacity="0.6"/>
  
</g>
  <g class="dark-variant">
  <defs>
    <filter id="glow" x="-20%" y="-20%" width="140%" height="140%">
      <feGaussianBlur stdDeviation="8" result="blur" />
      <feMerge>
        <feMergeNode in="blur" />
        <feMergeNode in="SourceGraphic" />
      </feMerge>
    </filter>
    <filter id="soft-glow" x="-20%" y="-20%" width="140%" height="140%">
      <feGaussianBlur stdDeviation="4" result="blur" />
      <feMerge>
        <feMergeNode in="blur" />
        <feMergeNode in="SourceGraphic" />
      </feMerge>
    </filter>
  </defs>
  
    <rect x="0" y="0" width="800" height="600" fill="#111117"/>
    <!-- Orbit ring -->
    <circle cx="400" cy="300" r="180" fill="none" stroke="#ffffff" stroke-width="1" stroke-dasharray="8 4" opacity="0.2"/>
    <!-- Connection lines -->
    <line x1="400" y1="300" x2="400" y2="130" stroke="#ffffff" stroke-width="1.5" stroke-dasharray="5 3" opacity="0.4"/><line x1="400" y1="300" x2="547" y2="215" stroke="#ffffff" stroke-width="1.5" stroke-dasharray="5 3" opacity="0.4"/><line x1="400" y1="300" x2="547" y2="385" stroke="#ffffff" stroke-width="1.5" stroke-dasharray="5 3" opacity="0.4"/><line x1="400" y1="300" x2="400" y2="470" stroke="#ffffff" stroke-width="1.5" stroke-dasharray="5 3" opacity="0.4"/><line x1="400" y1="300" x2="253" y2="385" stroke="#ffffff" stroke-width="1.5" stroke-dasharray="5 3" opacity="0.4"/><line x1="400" y1="300" x2="253" y2="215" stroke="#ffffff" stroke-width="1.5" stroke-dasharray="5 3" opacity="0.4"/>
    <!-- Central entity -->
    <rect x="340" y="260" width="120" height="80" rx="8" fill="#28282e" stroke="#ffffff" stroke-width="4" filter="url(#glow)"/>
    <rect x="360" y="278" width="50" height="7" rx="3" fill="#ffffff" opacity="0.8"/>
    <rect x="360" y="292" width="70" height="5" rx="2" fill="#ffffff" opacity="0.4"/>
    <rect x="360" y="304" width="55" height="5" rx="2" fill="#ffffff" opacity="0.4"/>
    <rect x="360" y="316" width="65" height="5" rx="2" fill="#ffffff" opacity="0.4"/>
    <!-- Trait nodes -->
    <rect x="350" y="108" width="100" height="44" rx="18" fill="#28282e" stroke="#ffffff" stroke-width="2.5"/><rect x="370" y="125" width="60" height="6" rx="3" fill="#ffffff" opacity="0.6"/><rect x="497" y="193" width="100" height="44" rx="18" fill="#28282e" stroke="#ffffff" stroke-width="2.5"/><rect x="517" y="210" width="60" height="6" rx="3" fill="#ffffff" opacity="0.6"/><rect x="497" y="363" width="100" height="44" rx="18" fill="#28282e" stroke="#ffffff" stroke-width="2.5"/><rect x="517" y="380" width="60" height="6" rx="3" fill="#ffffff" opacity="0.6"/><rect x="350" y="448" width="100" height="44" rx="18" fill="#28282e" stroke="#ffffff" stroke-width="2.5"/><rect x="370" y="465" width="60" height="6" rx="3" fill="#ffffff" opacity="0.6"/><rect x="203" y="363" width="100" height="44" rx="18" fill="#28282e" stroke="#ffffff" stroke-width="2.5"/><rect x="223" y="380" width="60" height="6" rx="3" fill="#ffffff" opacity="0.6"/><rect x="203" y="193" width="100" height="44" rx="18" fill="#28282e" stroke="#ffffff" stroke-width="2.5"/><rect x="223" y="210" width="60" height="6" rx="3" fill="#ffffff" opacity="0.6"/>
  
</g>
</svg>