<svg xmlns="http://www.w3.org/2000/svg" viewBox="0 0 800 600" width="100%" height="100%">
  <defs>
    <filter id="glow" x="-20%" y="-20%" width="140%" height="140%">
      <feGaussianBlur stdDeviation="8" result="blur" />
      <feMerge>
        <feMergeNode in="blur" />
        <feMergeNode in="SourceGraphic" />
      </feMerge>
    </filter>
    <filter id="soft-glow" x="-20%" y="-20%" width="140%" height="140%">
      <feGaussianBlur stdDeviation="4" result="blur" />
      <feMerge>
        <feMergeNode in="blur" />
        <feMergeNode in="SourceGraphic" />
      </feMerge>
    </filter>
  </defs>
  
    <g transform="translate(400,350)">
      <!-- Unfolding cube / Box -->
      <polygon points="0,0 120,-60 120,-140 0,-80" fill="#f5f5f5" stroke="#000000" stroke-width="3" opacity="0.5"/>
      <polygon points="0,0 -120,-60 -120,-140 0,-80" fill="#f5f5f5" stroke="#000000" stroke-width="3" opacity="0.8"/>
      
      <!-- Open Top flap 1 -->
      <polygon points="0,-80 -120,-140 -80,-220 40,-160" fill="none" stroke="#000000" stroke-width="3" stroke-dasharray="5 5"/>
      <!-- Open Top flap 2 -->
      <polygon points="0,-80 120,-140 80,-220 -40,-160" fill="#f5f5f5" stroke="#000000" stroke-width="2"/>
      
      <!-- Inside Glow Core -->
      <circle cx="0" cy="-60" r="30" fill="#000000" filter="url(#glow)"/>
      <circle cx="0" cy="-60" r="10" fill="#f5f5f5"/>
      
      <!-- Particles emitting upwards -->
      <circle cx="-30" cy="-160" r="8" fill="#000000"/>
      <circle cx="20" cy="-210" r="5" fill="#000000" filter="url(#glow)"/>
      <circle cx="50" cy="-140" r="12" fill="#000000" opacity="0.8"/>
      <circle cx="-10" cy="-250" r="6" fill="#000000"/>
      <polygon points="-50,-120 -40,-110 -60,-110" fill="#000000"/>
    </g>
  
</svg>